<?xml version="1.0" standalone="no"?>
<!DOCTYPE svg PUBLIC "-//W3C//DTD SVG 20010904//EN"
 "http://www.w3.org/TR/2001/REC-SVG-20010904/DTD/svg10.dtd">
<svg version="1.0" xmlns="http://www.w3.org/2000/svg"
 width="700.000000pt" height="700.000000pt" viewBox="0 0 700.000000 700.000000"
 preserveAspectRatio="xMidYMid meet">
<metadata>
Created by potrace 1.14, written by Peter Selinger 2001-2017
</metadata>
<g transform="translate(0.000000,700.000000) scale(0.100000,-0.100000)"
fill="#000000" stroke="none">
<path d="M3230 6650 c-533 -42 -1047 -272 -1424 -639 -169 -165 -285 -308
-400 -493 -473 -766 -525 -1728 -141 -2616 71 -162 149 -305 315 -572 163
-261 248 -426 294 -568 49 -152 59 -224 53 -371 -7 -192 -53 -306 -171 -429
-137 -143 -340 -186 -498 -106 -106 54 -152 116 -228 309 -67 168 -104 236
-162 301 -96 104 -209 154 -352 154 -102 0 -167 -19 -244 -70 -202 -135 -234
-445 -85 -822 31 -78 42 -94 112 -161 175 -167 390 -247 667 -247 226 0 435
51 652 160 472 236 752 646 839 1228 13 87 17 176 17 347 -2 337 -30 524 -174
1150 -128 558 -160 742 -181 1030 -31 447 59 846 260 1150 62 93 216 252 304
313 447 308 1033 219 1453 -220 271 -284 431 -665 496 -1178 17 -136 17 -683
0 -885 -73 -856 -79 -1171 -26 -1510 50 -320 155 -605 311 -839 75 -113 222
-271 326 -350 362 -274 816 -338 1183 -167 260 122 439 330 510 591 26 98 24
255 -5 350 -62 205 -211 356 -396 405 -67 17 -179 19 -244 4 -129 -29 -248
-125 -308 -247 -37 -73 -38 -80 -38 -181 0 -125 12 -158 119 -316 72 -107 91
-158 81 -214 -10 -52 -68 -106 -130 -119 -113 -24 -221 26 -353 162 -199 206
-339 492 -406 826 -35 174 -46 301 -46 524 0 291 20 480 116 1071 30 187 66
426 79 530 114 891 -20 1500 -438 2002 -408 490 -1079 765 -1737 713z"/>
</g>
</svg>
