<?xml version="1.0" encoding="UTF-8"?>
<svg version="1.1" viewBox="0 0 24 24" xmlns="http://www.w3.org/2000/svg">
 <path d="m2.4017 11.026c0.69566 0.2957 1.3037 0.80034 1.7076 1.4393 0.40389 0.63895 0.59922 1.4106 0.53041 2.1633-0.01168 0.12778-0.030734 0.25493-0.03733 0.38307-0.0066 0.12814-4.055e-4 0.25849 0.03733 0.38112 0.041115 0.13362 0.11905 0.25455 0.21726 0.35404 0.098217 0.09949 0.21633 0.1781 0.34215 0.23904 0.25164 0.1219 0.53057 0.17325 0.80522 0.22569 2.4069 0.45958 4.798 1.1 7.2473 1.1726 1.2247 0.03635 2.4603-0.07201 3.6377-0.41098 1.1774-0.33898 2.2965-0.91445 3.198-1.7442 0.22841-0.21023 0.44499-0.43812 0.70961-0.60044 0.29166-0.1789 0.62903-0.27019 0.92795-0.43668 0.55403-0.30859 0.94864-0.87593 1.0791-1.4965 0.13051-0.6206 0.0041-1.2851-0.31495-1.8332-0.35532-0.61029-0.95336-1.0806-1.6376-1.2555-0.5725-0.14632-1.1778-0.088284-1.7577 0.025457-0.57985 0.11374-1.1496 0.28216-1.7358 0.35664-1.4446 0.18354-2.9043-0.21388-4.2492-0.77245-1.3449-0.55856-2.6194-1.2804-3.9813-1.796-1.3619-0.51565-2.8563-0.82031-4.277-0.5004-0.71034 0.15996-1.3904 0.47811-1.9378 0.95828s-0.9568 1.1261-1.1115 1.8376c-0.044196 0.20322-0.067766 0.4143-0.031701 0.61912 0.036064 0.20482 0.1371 0.40394 0.30463 0.52717 0.098572 0.07251 0.2149 0.11589 0.32751 0.16376z" fill="none" stroke="#000" stroke-width="1px"/>
</svg>
