<?xml version="1.0" encoding="UTF-8"?>
<svg version="1.1" viewBox="0 0 24 24" xmlns="http://www.w3.org/2000/svg">
 <path d="m0.9494 21.665c0.38405 0.48182 0.95036 0.80203 1.5504 0.9421s1.232 0.10778 1.8319-0.03275c1.206-0.28251 2.3076-1.0172 2.9989-2.045 0.85348-1.2689 1.0447-2.883 0.90593-4.4059-0.13879-1.5229-0.57842-2.9998-0.88906-4.4972-0.31065-1.4974-0.49066-3.0645-0.11074-4.5458 0.18996-0.74065 0.52162-1.4504 1.0097-2.0389 0.48811-0.58856 1.1367-1.052 1.8683-1.2742 0.85067-0.2583 1.7886-0.17988 2.6099 0.16048 0.82129 0.34037 1.5271 0.93287 2.0562 1.6473 1.0583 1.4288 1.3938 3.2766 1.3912 5.0546-0.0026 1.7484-0.30106 3.4875-0.28255 5.2358 0.0093 0.87416 0.09892 1.7522 0.34026 2.5924 0.24133 0.84024 0.63866 1.6435 1.2178 2.2983 0.71185 0.80482 1.7152 1.3727 2.7862 1.4586 0.53551 0.04299 1.082-0.03406 1.5794-0.23706 0.4974-0.20299 0.94436-0.53292 1.2736-0.95748 0.41153-0.53076 0.63254-1.2273 0.51134-1.8878-0.0606-0.33029-0.20561-0.64631-0.42582-0.89983s-0.51615-0.44272-0.84182-0.52461c-0.23817-0.05988-0.49116-0.06226-0.72931-0.0023-0.23816 0.05994-0.46086 0.18254-0.63564 0.35506-0.17479 0.17251-0.30076 0.39483-0.35441 0.63448-0.05366 0.23965-0.03416 0.49584 0.05939 0.72291 0.09573 0.23235 0.26285 0.42659 0.40219 0.63572 0.06967 0.10457 0.13307 0.21421 0.17613 0.33225s0.06527 0.24521 0.05117 0.37007c-0.01233 0.10914-0.05243 0.21469-0.1133 0.30611s-0.14225 0.16874-0.23514 0.22734c-0.18579 0.11719-0.41464 0.15712-0.63284 0.13174-0.21819-0.02538-0.42612-0.11307-0.61018-0.23295-0.18407-0.11988-0.34564-0.27138-0.49523-0.43224-0.88955-0.95657-1.3606-2.2462-1.5167-3.5431-0.15606-1.2969-0.01825-2.6111 0.17986-3.9022 0.1981-1.2912 0.4568-2.576 0.54413-3.8793s-0.0035-2.6413-0.48287-3.8564c-0.40143-1.0175-1.0715-1.9257-1.9162-2.6206s-1.8613-1.1765-2.9312-1.404c-2.1398-0.45501-4.4565 0.14354-6.177 1.4947-1.7205 1.3512-2.8391 3.4126-3.1444 5.5788-0.30526 2.1662 0.18245 4.4178 1.2596 6.3219 0.37811 0.66836 0.82604 1.296 1.1879 1.9733 0.36188 0.67728 0.63937 1.4213 0.63734 2.1892-0.00102 0.38395-0.07339 0.76979-0.23181 1.1195-0.15842 0.34974-0.40464 0.66233-0.72033 0.88087s-0.7016 0.33978-1.085 0.31992c-0.38343-0.019868-0.76123-0.18504-1.0214-0.46743-0.23726-0.25754-0.36731-0.59337-0.49114-0.92091-0.12383-0.32755-0.25165-0.66382-0.4858-0.92419-0.17731-0.19717-0.41161-0.34249-0.66703-0.41372-0.25542-0.071234-0.53111-0.06814-0.78487 0.008809-1.263 0.41023-0.8011 2.1525-0.41695 2.9536z" stroke="#000" stroke-width=".44262px"/>
</svg>
