<?xml version="1.0" encoding="UTF-8"?>
<svg version="1.1" viewBox="0 0 24 24" xmlns="http://www.w3.org/2000/svg">
 <path d="m16.632 11.782c-1.6833-0.86479-6.1957-0.26435-8.4513 0.03579-2.2556 0.30014-2.2556 0.30014-2.292 1.2559-0.03641 0.95578-0.10919 2.8662-0.39154 3.7571s-0.77292 0.76378-1.2642 0.63642c-0.7278-0.14556-2.1753-0.43505-2.1723-0.45421 0.00294-0.01916 2.3538-6.1676 3.2575-7.6603 0.90368-1.4927 10.905 0.25406 13.547 0.85279 2.6428 0.59873 2.1978 4.8428 1.4423 5.8793-0.75547 1.0365-2.0291 0.85459-2.8299 0.85498-0.80076 3.9e-4 -1.1283 0.18234-0.71857-0.89092 0.4097-1.0733 1.556-3.4022-0.12734-4.267z" fill="none" stroke="#000" stroke-width="1px"/>
</svg>
