<?xml version="1.0" encoding="UTF-8"?>
<svg version="1.1" viewBox="0 0 24 24" xmlns="http://www.w3.org/2000/svg">
 <path d="m12.009 13.974c1.6448-0.59062 3.3738-1.123 5.1113-0.93592 0.86878 0.09354 1.7264 0.37317 2.4412 0.8758 0.71477 0.50263 1.2791 1.2367 1.5087 2.0798 0.08191 0.30076 0.12134 0.61157 0.19704 0.91396 0.0757 0.30238 0.19234 0.60336 0.40339 0.83277 0.18859 0.20499 0.4563 0.34491 0.73485 0.3459 0.13927 4.95e-4 0.27914-0.03367 0.40016-0.10261 0.12102-0.06894 0.22254-0.17299 0.2842-0.29787 0.06851-0.13878 0.08637-0.29919 0.06735-0.45278-0.01903-0.15359-0.07344-0.30107-0.14304-0.4393-0.13921-0.27646-0.33915-0.51962-0.47015-0.80006-0.19858-0.4251-0.22678-0.90896-0.21563-1.378 0.01115-0.46906 0.05816-0.94059-0.0027-1.4058-0.075621-0.5779-0.31882-1.1291-0.67178-1.5929-0.35296-0.46379-0.81336-0.8414-1.3235-1.1232-1.0203-0.56362-2.2153-0.73897-3.3809-0.72501s-2.3205 0.20643-3.4792 0.33355c-1.1587 0.12712-2.3416 0.18784-3.4809-0.058341-1.3229-0.28586-2.5243-0.97099-3.8178-1.3695-0.64674-0.19927-1.3231-0.32673-1.9987-0.28844-0.67565 0.038289-1.3528 0.25107-1.88 0.67543-0.51169 0.41191-0.86216 1.012-0.99827 1.6546-0.13611 0.64263-0.061943 1.3238 0.18194 1.9337 0.24388 0.60994 0.65366 1.1487 1.1575 1.5701 0.50387 0.42144 1.1 0.72723 1.728 0.92001 1.2559 0.38557 2.614 0.31831 3.8979 0.03949 1.2838-0.27882 2.5127-0.76128 3.7491-1.2053z" fill="none" stroke="#000" stroke-width="1px"/>
</svg>
