<?xml version="1.0" encoding="UTF-8"?>
<svg version="1.1" viewBox="0 0 24 24" xmlns="http://www.w3.org/2000/svg">
 <path d="m7.366 19.001c-0.13867-1.7215-0.045232-3.4616 0.27698-5.1583 0.27833-1.4657 0.74521-2.9341 1.6683-4.1061 0.46157-0.58598 1.0347-1.0896 1.6971-1.4326 0.66237-0.34304 1.4156-0.52151 2.1596-0.46794 0.7003 0.05042 1.3799 0.3052 1.9626 0.69683 0.58274 0.39163 1.0702 0.91717 1.4498 1.5078 0.75913 1.1813 1.0798 2.5948 1.2075 3.9932 0.14476 1.5858 0.05744 3.1927-0.25833 4.7535l4.1557 0.08183c0.78294-1.9736 0.88343-4.2107 0.2806-6.2466s-1.9051-3.8576-3.6364-5.0867c-2.5838-1.8344-6.1012-2.2628-9.0568-1.12s-5.2655 3.8163-5.9859 6.9022c-0.42782 1.8325-0.31559 3.7877 0.31911 5.5592z" stroke="#000" stroke-width=".59031px"/>
</svg>
