<?xml version="1.0" encoding="UTF-8"?>
<svg version="1.1" viewBox="0 0 24 24" xmlns="http://www.w3.org/2000/svg">
 <path d="m12.125 12.084c1.2909 0.25277 2.5065 0.87871 3.4621 1.7827s1.648 2.083 1.9719 3.358l3.2693 1.2731c1.0777-1.9405 1.4768-4.2495 1.1132-6.4392-0.36367-2.1897-1.4877-4.2457-3.1348-5.7337-1.7607-1.5906-4.1079-2.5167-6.4804-2.5567-2.3724-0.040027-4.7496 0.80633-6.5629 2.3367s-3.0472 3.7314-3.4065 6.0768c-0.3593 2.3454 0.15907 4.8149 1.4311 6.8179-0.015513-2.0649 0.93893-4.1167 2.5283-5.4351 1.5893-1.3184 3.7821-1.8772 5.8086-1.4805z" stroke="#000" stroke-width=".55525px"/>
</svg>
