<?xml version="1.0" encoding="UTF-8"?>
<svg version="1.1" viewBox="0 0 24 24" xmlns="http://www.w3.org/2000/svg">
 <path d="m2.9588 15.277c-0.44015-0.109-0.8495-0.33673-1.1785-0.6488s-0.57732-0.7074-0.72152-1.1373c-0.2884-0.8598-0.14222-1.8442 0.34578-2.6085 0.49911-0.78178 1.3067-1.3137 2.1349-1.7312 2.5332-1.2769 5.4691-1.6816 8.281-1.3063 2.8119 0.37526 5.4983 1.5099 7.8315 3.1236 0.96066 0.66442 1.8771 1.4225 2.547 2.3793s1.0776 2.1352 0.94097 3.2952c-0.06832 0.58001-0.27308 1.1467-0.613 1.6216-0.33991 0.47491-0.81677 0.85512-1.3649 1.0567s-1.1663 0.21938-1.7173 0.02562c-0.55094-0.19376-1.0278-0.60262-1.2812-1.1288-0.20361-0.42281-0.26077-0.90356-0.24327-1.3725 0.0175-0.46896 0.10625-0.93186 0.18146-1.3951 0.07522-0.46322 0.13725-0.9329 0.10078-1.4008-0.036472-0.46787-0.17816-0.9383-0.47288-1.3035-0.26724-0.33116-0.64892-0.55987-1.0567-0.68141-0.40781-0.12154-0.84125-0.14037-1.2648-0.09879-0.847 0.08317-1.6511 0.40061-2.48 0.59382-0.78411 0.18279-1.5887 0.25689-2.3858 0.37098-0.79701 0.1141-1.59 0.275-2.3495 0.5422-0.7595 0.2672-1.4752 0.64299-2.1838 1.0253s-1.4398 0.78692-2.2427 0.84686c-0.27053 0.02019-0.54424-0.0029-0.80756-0.0681z" stroke="#000"/>
</svg>
