<?xml version="1.0" encoding="UTF-8"?>
<svg version="1.1" viewBox="0 0 24 24" xmlns="http://www.w3.org/2000/svg">
 <path d="m0.55147 16.399c-0.008516-0.0962-0.004885-0.19304 0-0.28949 0.14559-2.8748 1.4485-5.6729 3.5482-7.6418s4.9717-3.0889 7.8501-3.071c2.8784 0.017863 5.7329 1.171 7.8229 3.1503 2.09 1.9793 3.3957 4.763 3.5915 7.6348 0.01664 0.24408 0.02406 0.49787-0.06998 0.72372-0.05994 0.14396-0.1594 0.26997-0.27945 0.3695-0.12005 0.09953-0.2603 0.17318-0.40736 0.22507-0.29411 0.10378-0.6109 0.12091-0.92268 0.12916-2.8927 0.07653-5.7538-0.52529-8.6221-0.90795-2.8683-0.38267-5.8547-0.53626-8.5924 0.40135-0.73239 0.25083-1.464 0.58215-2.238 0.5669-0.387-0.0076-0.77883-0.10758-1.0957-0.32995-0.15842-0.11118-0.29663-0.25214-0.39917-0.41628s-0.16888-0.35162-0.18595-0.5444z" stroke="#000" stroke-width=".32594px"/>
</svg>
