<?xml version="1.0" encoding="UTF-8"?>
<svg version="1.1" viewBox="0 0 24 24" xmlns="http://www.w3.org/2000/svg">
 <path d="m23.367 16.11c0.11244-3.0624-1.0714-6.1515-3.2017-8.3544s-5.1779-3.4896-8.2424-3.4799c-3.0644 0.0097215-6.1039 1.3158-8.2201 3.5321-2.1162 2.2164-3.2805 5.3129-3.1486 8.3745 0.010437 0.24231 0.028653 0.48474 0.06998 0.72372 0.10833 0.62646 0.37799 1.2243 0.77586 1.7202s0.92311 0.88868 1.5112 1.1302c0.5881 0.2415 1.2378 0.3312 1.8694 0.25806 0.63154-0.07314 1.2436-0.30895 1.7609-0.67848 0.51734-0.36953 0.93889-0.87198 1.2129-1.4457 0.27401-0.57368 0.39988-1.2174 0.36216-1.852-0.037719-0.63464-0.23895-1.2589-0.57898-1.7961-0.34003-0.53719-0.81813-0.98617-1.3756-1.2918z" stroke="#000" stroke-width=".32594px"/>
</svg>
