<?xml version="1.0" encoding="UTF-8"?>
<svg version="1.1" viewBox="0 0 24 24" xmlns="http://www.w3.org/2000/svg">
 <path d="m21.259 17.894c0.41585 0.01738 0.69451-0.09641 0.9877-0.38444 0.54965-0.32312 0.58698-1.7646 0.65847-2.4028 0.13884-1.2159 0.0059-1.9071-0.41154-2.9794-0.97509-2.7261-2.2389-0.14588-3.7039-0.57666-0.68354-0.26605-0.55394-1.1975-0.82308-1.8261-0.31985-0.74696-1.9425-1.1746-2.5516-1.2494-1.1363-0.17764-2.1769 0.45739-3.1277 0.865-0.93787 0.5431-1.9748 1.225-3.1277 0.48055-1.1573-1.0968 0.23442-4.1044-1.7285-3.7483-3.8113 1.8776 0.97369 4.584-2.2223 4.5172-1.2468-0.91463-2.3575-2.3833-3.0454-3.6522-0.35453-0.33118-1.1755-0.23415-1.3992 0.28833-0.019428 1.8563 0.94482 3.504 1.4816 4.9978 0.41801 1.1715 0.97703 2.2655 1.3169 3.46z" fill="black" stroke="#000" stroke-width=".40736px"/>
</svg>
