<?xml version="1.0" encoding="UTF-8"?>
<svg version="1.1" viewBox="0 0 24 24" xmlns="http://www.w3.org/2000/svg">
 <path d="m4.05 10.428c1.9847-1.4151 4.4519-2.0812 6.8895-2.0755 2.4376 0.00565 4.8465 0.65784 7.0579 1.6832 0.41091 0.19052 0.82216 0.39822 1.1532 0.70729 0.16554 0.15454 0.3095 0.33388 0.41218 0.53572s0.16328 0.42673 0.162 0.65319c-0.0017 0.29218-0.10421 0.57308-0.2022 0.84835-0.09799 0.27526-0.19396 0.55977-0.18167 0.8517 0.01105 0.26252 0.10902 0.51274 0.21009 0.75528 0.10107 0.24254 0.20772 0.48758 0.23776 0.74861 0.03621 0.31465-0.04158 0.63146-0.14445 0.93102-0.10288 0.29956-0.23172 0.59129-0.3034 0.8998-0.12834 0.55239-0.0578 1.1622 0.25592 1.6347 0.27186 0.40941 0.71857 0.69674 1.2027 0.78142 0.4841 0.08468 0.99904-0.03257 1.4029-0.31258 0.40388-0.28001 0.69324-0.71832 0.79917-1.1982 0.10592-0.4799 0.02896-0.99662-0.20582-1.4284-0.14752-0.27129-0.35223-0.5062-0.53807-0.75283-0.18584-0.24662-0.35722-0.51443-0.42161-0.81644-0.06746-0.3164-0.01226-0.64621 0.07183-0.9586s0.19717-0.61812 0.24807-0.9376c0.09454-0.5934-0.03299-1.2085-0.28907-1.7521-0.25608-0.54359-0.63553-1.0211-1.0545-1.4518-1.1988-1.2325-2.742-2.1106-4.3908-2.5983-1.6488-0.48763-3.4001-0.59192-5.108-0.39349-3.4157 0.39685-6.5944 1.975-9.4389 3.9072-0.16512 0.11216-0.33298 0.22908-0.44785 0.39232-0.10634 0.15111-0.16084 0.33456-0.17641 0.51868-0.015576 0.18412 0.00617 0.36962 0.041799 0.55092 0.071268 0.36261 0.19861 0.71861 0.19859 1.0882-1.47e-5 0.26765-0.067155 0.53041-0.14024 0.78788-0.07309 0.25747-0.15299 0.51508-0.17965 0.78139-0.040468 0.40431 0.043275 0.80924 0.11109 1.2099 0.06782 0.40063 0.11944 0.81625 0.016863 1.2094-0.066459 0.25472-0.19483 0.48829-0.29117 0.73327-0.048172 0.12249-0.088557 0.24873-0.10833 0.37886-0.019774 0.13013-0.018482 0.26463 0.015631 0.39176 0.033702 0.1256 0.099322 0.24221 0.1875 0.33779 0.088182 0.09557 0.19865 0.17011 0.31945 0.21826 0.2416 0.0963 0.52103 0.08356 0.76026-0.01847 0.23923-0.10203 0.43806-0.28933 0.57-0.51346 0.13195-0.22412 0.19882-0.48353 0.2101-0.74337 0.018723-0.43115-0.11053-0.85282-0.21145-1.2724-0.10092-0.41959-0.17351-0.86584-0.04446-1.2777 0.1055-0.33668 0.33544-0.6173 0.54954-0.89774 0.2141-0.28044 0.42314-0.58396 0.47412-0.93308 0.030017-0.20558 0.00284-0.41607-0.049679-0.61707-0.052519-0.20101-0.12994-0.39446-0.20242-0.58916s-0.14049-0.39246-0.17305-0.59765c-0.032553-0.20519-0.028293-0.41964 0.041273-0.61541 0.059786-0.16824 0.16581-0.31725 0.29044-0.4451 0.12463-0.12785 0.26794-0.23589 0.41332-0.33954z" fill="none" stroke="#000" stroke-width="1.1849px"/>
</svg>
